HIERARCHY
ROOT Hips
{
    OFFSET   0.000000   0.000000   0.000000
    CHANNELS 6 Xposition Yposition Zposition Zrotation Xrotation Yrotation
    JOINT Chest
    {
        OFFSET   0.000000   8.007230   0.000000
        CHANNELS 3 Zrotation Xrotation Yrotation
        JOINT Chest2
        {
            OFFSET   0.000000  22.077100   0.000000
            CHANNELS 3 Zrotation Xrotation Yrotation
            JOINT Neck
            {
                OFFSET   0.000000  23.254800  -0.000021
                CHANNELS 3 Zrotation Xrotation Yrotation
                JOINT Head
                {
                    OFFSET   0.000000  14.370000   1.956610
                    CHANNELS 3 Zrotation Xrotation Yrotation
                    End Site
                    {
                        OFFSET   0.000000  19.566000   0.000000
                    }
                }
            }
            JOINT LeftCollar
            {
                OFFSET   3.911900  19.017000  -0.467063
                CHANNELS 3 Zrotation Xrotation Yrotation
                JOINT LeftShoulder
                {
                    OFFSET  10.383700   0.000000   0.000000
                    CHANNELS 3 Zrotation Xrotation Yrotation
                    JOINT LeftElbow
                    {
                        OFFSET  26.662100   0.001529   0.000325
                        CHANNELS 3 Zrotation Xrotation Yrotation
                        JOINT LeftWrist
                        {
                            OFFSET  28.869000  -0.000011  -0.000096
                            CHANNELS 3 Zrotation Xrotation Yrotation
                            JOINT LeftFinger0
                            {
                                OFFSET   2.044650  -2.323460   3.252850
                                CHANNELS 3 Zrotation Xrotation Yrotation
                                JOINT LeftFinger01
                                {
                                    OFFSET   3.088130   0.000000   0.000000
                                    CHANNELS 3 Zrotation Xrotation Yrotation
                                    JOINT LeftFinger02
                                    {
                                        OFFSET   2.639460   0.000000   0.000000
                                        CHANNELS 3 Zrotation Xrotation Yrotation
                                        End Site
                                        {
                                            OFFSET   2.582190   0.000000   0.000000
                                        }
                                    }
                                }
                            }
                            JOINT LeftFinger1
                            {
                                OFFSET   8.364480   0.000000   3.252850
                                CHANNELS 3 Zrotation Xrotation Yrotation
                                JOINT LeftFinger11
                                {
                                    OFFSET   4.646930   0.000000   0.000000
                                    CHANNELS 3 Zrotation Xrotation Yrotation
                                    JOINT LeftFinger12
                                    {
                                        OFFSET   2.323460   0.000000   0.000000
                                        CHANNELS 3 Zrotation Xrotation Yrotation
                                        End Site
                                        {
                                            OFFSET   2.273050   0.000000   0.000000
                                        }
                                    }
                                }
                            }
                            JOINT LeftFinger2
                            {
                                OFFSET   8.364480   0.000016   1.078090
                                CHANNELS 3 Zrotation Xrotation Yrotation
                                JOINT LeftFinger21
                                {
                                    OFFSET   5.111620   0.000000   0.000000
                                    CHANNELS 3 Zrotation Xrotation Yrotation
                                    JOINT LeftFinger22
                                    {
                                        OFFSET   2.788160   0.000017   0.000000
                                        CHANNELS 3 Zrotation Xrotation Yrotation
                                        End Site
                                        {
                                            OFFSET   2.727660   0.000000   0.000000
                                        }
                                    }
                                }
                            }
                            JOINT LeftFinger3
                            {
                                OFFSET   7.899780   0.000015  -1.078090
                                CHANNELS 3 Zrotation Xrotation Yrotation
                                JOINT LeftFinger31
                                {
                                    OFFSET   4.646920   0.000000   0.000000
                                    CHANNELS 3 Zrotation Xrotation Yrotation
                                    JOINT LeftFinger32
                                    {
                                        OFFSET   2.323470   0.000000   0.000000
                                        CHANNELS 3 Zrotation Xrotation Yrotation
                                        End Site
                                        {
                                            OFFSET   2.273050   0.000000   0.000000
                                        }
                                    }
                                }
                            }
                            JOINT LeftFinger4
                            {
                                OFFSET   7.435090   0.000000  -3.252850
                                CHANNELS 3 Zrotation Xrotation Yrotation
                                JOINT LeftFinger41
                                {
                                    OFFSET   3.717550   0.000000   0.000000
                                    CHANNELS 3 Zrotation Xrotation Yrotation
                                    JOINT LeftFinger42
                                    {
                                        OFFSET   1.858760   0.000000   0.000000
                                        CHANNELS 3 Zrotation Xrotation Yrotation
                                        End Site
                                        {
                                            OFFSET   1.818440   0.000000   0.000000
                                        }
                                    }
                                }
                            }
                        }
                    }
                }
            }
            JOINT RightCollar
            {
                OFFSET  -3.911900  19.017000  -0.467062
                CHANNELS 3 Zrotation Xrotation Yrotation
                JOINT RightShoulder
                {
                    OFFSET -10.383700   0.000015   0.000000
                    CHANNELS 3 Zrotation Xrotation Yrotation
                    JOINT RightElbow
                    {
                        OFFSET -26.662100   0.001341   0.000385
                        CHANNELS 3 Zrotation Xrotation Yrotation
                        JOINT RightWrist
                        {
                            OFFSET -28.869000   0.000025  -0.000080
                            CHANNELS 3 Zrotation Xrotation Yrotation
                            JOINT RightFinger0
                            {
                                OFFSET  -2.044650  -2.323490   3.252850
                                CHANNELS 3 Zrotation Xrotation Yrotation
                                JOINT RightFinger01
                                {
                                    OFFSET  -3.088130   0.000000   0.000000
                                    CHANNELS 3 Zrotation Xrotation Yrotation
                                    JOINT RightFinger02
                                    {
                                        OFFSET  -2.639460   0.000000   0.000000
                                        CHANNELS 3 Zrotation Xrotation Yrotation
                                        End Site
                                        {
                                            OFFSET  -2.582190   0.000000   0.000000
                                        }
                                    }
                                }
                            }
                            JOINT RightFinger1
                            {
                                OFFSET  -8.364480   0.000000   3.252850
                                CHANNELS 3 Zrotation Xrotation Yrotation
                                JOINT RightFinger11
                                {
                                    OFFSET  -4.646930   0.000000   0.000000
                                    CHANNELS 3 Zrotation Xrotation Yrotation
                                    JOINT RightFinger12
                                    {
                                        OFFSET  -2.323470   0.000000   0.000000
                                        CHANNELS 3 Zrotation Xrotation Yrotation
                                        End Site
                                        {
                                            OFFSET  -2.273050   0.000000   0.000000
                                        }
                                    }
                                }
                            }
                            JOINT RightFinger2
                            {
                                OFFSET  -8.364480   0.000000   1.078090
                                CHANNELS 3 Zrotation Xrotation Yrotation
                                JOINT RightFinger21
                                {
                                    OFFSET  -5.111610   0.000000   0.000000
                                    CHANNELS 3 Zrotation Xrotation Yrotation
                                    JOINT RightFinger22
                                    {
                                        OFFSET  -2.788160   0.000000   0.000000
                                        CHANNELS 3 Zrotation Xrotation Yrotation
                                        End Site
                                        {
                                            OFFSET  -2.727660   0.000000   0.000000
                                        }
                                    }
                                }
                            }
                            JOINT RightFinger3
                            {
                                OFFSET  -7.899780   0.000000  -1.078090
                                CHANNELS 3 Zrotation Xrotation Yrotation
                                JOINT RightFinger31
                                {
                                    OFFSET  -4.646920   0.000000   0.000000
                                    CHANNELS 3 Zrotation Xrotation Yrotation
                                    JOINT RightFinger32
                                    {
                                        OFFSET  -2.323470   0.000000   0.000000
                                        CHANNELS 3 Zrotation Xrotation Yrotation
                                        End Site
                                        {
                                            OFFSET  -2.273050   0.000000   0.000000
                                        }
                                    }
                                }
                            }
                            JOINT RightFinger4
                            {
                                OFFSET  -7.435090   0.000000  -3.252850
                                CHANNELS 3 Zrotation Xrotation Yrotation
                                JOINT RightFinger41
                                {
                                    OFFSET  -3.717550   0.000000   0.000000
                                    CHANNELS 3 Zrotation Xrotation Yrotation
                                    JOINT RightFinger42
                                    {
                                        OFFSET  -1.858770   0.000000   0.000000
                                        CHANNELS 3 Zrotation Xrotation Yrotation
                                        End Site
                                        {
                                            OFFSET  -1.818440   0.000000   0.000000
                                        }
                                    }
                                }
                            }
                        }
                    }
                }
            }
        }
    }
    JOINT LeftHip
    {
        OFFSET   9.783010   0.000000   0.000000
        CHANNELS 3 Zrotation Xrotation Yrotation
        JOINT LeftKnee
        {
            OFFSET   0.000070 -41.789100   0.000028
            CHANNELS 3 Zrotation Xrotation Yrotation
            JOINT LeftAnkle
            {
                OFFSET   0.000087 -41.133200  -0.000100
                CHANNELS 3 Zrotation Xrotation Yrotation
                JOINT LeftToe
                {
                    OFFSET   0.000000  -6.358960  14.674500
                    CHANNELS 3 Zrotation Xrotation Yrotation
                    End Site
                    {
                        OFFSET   0.000000   0.000000   3.913200
                    }
                }
            }
        }
    }
    JOINT RightHip
    {
        OFFSET  -9.783020   0.000000   0.000000
        CHANNELS 3 Zrotation Xrotation Yrotation
        JOINT RightKnee
        {
            OFFSET   0.000044 -41.789100  -0.000870
            CHANNELS 3 Zrotation Xrotation Yrotation
            JOINT RightAnkle
            {
                OFFSET  -0.000090 -41.133200  -0.000245
                CHANNELS 3 Zrotation Xrotation Yrotation
                JOINT RightToe
                {
                    OFFSET   0.000000  -6.358960  14.674500
                    CHANNELS 3 Zrotation Xrotation Yrotation
                    End Site
                    {
                        OFFSET   0.000000   0.000000   3.913200
                    }
                }
            }
        }
    }
}
MOTION
Frames: 4
Frame Time:   0.016667
 -0.416768  89.847000   1.106220  -0.873390  -5.842680  -1.434400  -0.199426   4.413460  -1.543400  -0.280387   8.830720  -3.085150   1.617420  -0.512974   0.003365   2.659880  -1.037840   7.148620  -6.943750  -2.793520   2.782190 -69.313300  17.276300   3.284610  -2.759540  -5.583100 -20.922800  13.756200  -1.909450   5.484220  36.902400  25.069900 -53.422300 -30.381500  -0.000368  -0.000163 -10.190800  -0.000240   0.000268 -32.751700   7.699840 -11.765900 -27.447300   0.000730   0.009565 -19.213100  -0.001180   0.006509 -28.658500  -0.293044   0.536013 -38.420900  -0.001216   0.004223 -25.588300  -0.002830   0.001887 -27.884900  -0.285732   0.539964 -31.292100   0.000660   0.007754 -20.840600   0.006877   0.001693 -28.624500  -1.917090   3.507570 -43.025500  -0.009151   0.006281 -28.655000  -0.000600   0.002853  13.396600   1.081640   9.041500  65.279300  10.647700  -2.803900   0.904155  -6.546320  16.683900 -16.464700 -14.897200  -2.559050 -36.400200  32.329900  69.122500  32.458200  -0.001776  -0.000545  11.229100  -0.009327  -0.008008  34.230700   5.456790   7.956550  28.317600  -0.007713  -0.013265  19.822300  -0.009099  -0.006213  28.314500  -1.027940  -1.907430  34.451200   0.002526  -0.001035  22.944500   0.000398  -0.002921  28.620500  -2.607700  -4.767050  39.600200  -0.001532  -0.004765  26.373700  -0.007529  -0.003249  38.180500  -3.363240  -4.268340  57.458400  -0.000444  -0.001555  38.267300  -0.003142  -0.003509   2.196630   6.064670   2.585690   0.878544   3.845310  11.795100  -6.833820  -4.837100   2.642290   0.000000   0.000000  -0.000000   1.691250   7.419720  -7.102920   1.555500   2.116490 -11.326800  -9.603120  -1.313180   2.120970   0.000000   0.000000   0.000000
 -0.421884  89.846900   1.103460  -0.873217  -5.842680  -1.434400  -0.199297   4.416160  -1.548310  -0.279674   8.836110  -3.095020   1.617070  -0.508046   0.003397   2.659130  -1.027810   7.175850  -6.942570  -2.793510   2.806260 -69.371200  17.353300   3.313330  -2.775180  -5.678920 -20.919000  13.763200  -1.820790   5.573810  36.891000  24.996300 -53.499900 -30.391000  -0.000373  -0.000157 -10.195500  -0.000243   0.000280 -32.772200   7.718300 -11.777200 -27.463400   0.000723   0.009583 -19.224400  -0.001180   0.006516 -28.659300  -0.271436   0.496487 -38.404200  -0.001236   0.004254 -25.577200  -0.002827   0.001900 -27.878800  -0.264600   0.500161 -31.256300   0.000658   0.007797 -20.816700   0.006877   0.001685 -28.614900  -1.902120   3.481690 -43.010600  -0.009155   0.006331 -28.645100  -0.000593   0.002846  13.406500   1.064420   9.061300  65.301300  10.692500  -2.801870   0.902697  -6.553770  16.674600 -16.489800 -14.917800  -2.560260 -36.392900  32.329100  69.129300  32.449300  -0.001778  -0.000508  11.224700  -0.009333  -0.007998  34.243600   5.452250   7.946240  28.327900  -0.007711  -0.013258  19.829500  -0.009103  -0.006193  28.314800  -1.027950  -1.907420  34.461200   0.002520  -0.001011  22.951100   0.000402  -0.002896  28.620700  -2.607930  -4.767400  39.623300  -0.001541  -0.004728  26.389100  -0.007524  -0.003227  38.192600  -3.364190  -4.268410  57.476700  -0.000411  -0.001539  38.279500  -0.003111  -0.003506   2.198800   6.065320   2.586550   0.880618   3.835230  11.794900  -6.839070  -4.829810   2.637470   0.000000   0.000000  -0.000000   1.692550   7.422510  -7.113600   1.564260   2.093180 -11.301700  -9.612080  -1.296400   2.109330   0.000000   0.000000  -0.000000
 -0.432430  89.846800   1.097580  -0.873043  -5.842680  -1.434400  -0.199634   4.423120  -1.555100  -0.279635   8.850050  -3.108660   1.616720  -0.497764   0.003461   2.657350  -1.006950   7.215950  -6.940840  -2.793460   2.841760 -69.464300  17.459000   3.345230  -2.790810  -5.774740 -20.915300  13.815100  -1.586650   5.663000  36.799100  24.922800 -53.577500 -30.400400  -0.000391  -0.000152 -10.200200  -0.000254   0.000300 -32.776500   7.769650 -11.854400 -27.479600   0.000707   0.009626 -19.235700  -0.001181   0.006533 -28.660600  -0.208065   0.380336 -38.371600  -0.001272   0.004325 -25.555500  -0.002819   0.001929 -27.867700  -0.202744   0.383248 -31.191700   0.000653   0.007892 -20.773700   0.006876   0.001670 -28.593600  -1.841960   3.374760 -42.975000  -0.009167   0.006440 -28.621400  -0.000579   0.002831  13.419100   1.030680   9.081050  65.355700  10.763000  -2.785440   0.893511  -6.571970  16.665700 -16.527700 -14.938400  -2.567280 -36.391000  32.316400  69.146100  32.440500  -0.001779  -0.000403  11.220300  -0.009340  -0.007979  34.257900   5.442900   7.928540  28.338100  -0.007707  -0.013242  19.836600  -0.009118  -0.006147  28.315200  -1.028030  -1.907420  34.471100   0.002506  -0.000956  22.957800   0.000411  -0.002835  28.620600  -2.609520  -4.769860  39.646400  -0.001567  -0.004645  26.404500  -0.007510  -0.003176  38.204400  -3.367980  -4.268870  57.495000  -0.000322  -0.001507  38.291600  -0.003044  -0.003492   2.207990   6.069870   2.592590   0.883920   3.818210  11.794400  -6.848450  -4.818370   2.628740  -0.000000   0.000000  -0.000000   1.694550   7.428180  -7.129350   1.582540   2.055920 -11.258300  -9.630800  -1.266670   2.089340   0.000000   0.000000   0.000000
 -0.444933  89.846600   1.090770  -0.873550  -5.844430  -1.438520  -0.201256   4.431490  -1.557740  -0.282506   8.866830  -3.113780   1.618540  -0.486028   0.003533   2.659570  -0.983269   7.240050  -6.937340  -2.787000   2.856460 -69.528700  17.479000   3.348660  -2.809200  -5.713190 -21.011300  13.924300  -1.351570   5.659280  37.004000  25.375300 -53.817800 -30.286800  -0.000421  -0.000164 -10.143400  -0.000273   0.000318 -32.662300   7.844410 -12.019300 -27.407800   0.000684   0.009691 -19.185400  -0.001190   0.006558 -28.660700  -0.106484   0.193845 -38.353900  -0.001319   0.004427 -25.543700  -0.002806   0.001972 -27.862400  -0.103619   0.195722 -31.161100   0.000642   0.008021 -20.753300   0.006874   0.001650 -28.583900  -1.721960   3.158190 -42.950100  -0.009192   0.006593 -28.604800  -0.000559   0.002814  13.423000   0.990646   9.080450  65.430500  10.812700  -2.744820   0.876365  -6.584630  16.676100 -16.554600 -14.898300  -2.593040 -36.363500  32.269500  69.151200  32.474800  -0.001774  -0.000211  11.237400  -0.009341  -0.007960  34.258300   5.433740   7.910820  28.336300  -0.007705  -0.013215  19.835400  -0.009145  -0.006080  28.314200  -1.029630  -1.910340  34.463700   0.002489  -0.000878  22.952800   0.000423  -0.002745  28.619400  -2.612050  -4.774310  39.636400  -0.001607  -0.004525  26.397800  -0.007490  -0.003103  38.201600  -3.371650  -4.272220  57.491200  -0.000168  -0.001464  38.289100  -0.002962  -0.003454   2.224660   6.080880   2.622420   0.879496   3.801210  11.775400  -6.857090  -4.810850   2.620670  -0.000000   0.000000  -0.000000   1.695470   7.432710  -7.137320   1.605340   2.023370 -11.220600  -9.654300  -1.237700   2.068670   0.000000   0.000000   0.000000
